<svg xmlns="http://www.w3.org/2000/svg" width="678.454" height="454.077" viewBox="0 0 678.454 454.077">
  <g id="Grupo_172" data-name="Grupo 172" transform="translate(-257 -313.368)">
    <path id="Trazado_1276" data-name="Trazado 1276" d="M489.414,105.045C445.92,103.533,404.5,89.494,364.939,74.131S286.2,41.745,243.75,33.607c-27.305-5.235-58.535-5.974-80.531,8.663-21.176,14.113-28.017,38.407-31.693,60.974-2.769,16.976-4.4,34.845,3.186,50.732,5.269,11.035,14.61,20.309,21.075,30.88,22.493,36.774,6.593,82.123-17.775,118.03-11.425,16.848-24.7,32.93-33.521,50.847s-12.9,38.474-5.181,56.767c7.648,18.145,25.88,31.747,45.632,41.324C185.054,471.28,232.3,476.844,278.413,480c102.036,6.983,204.609,3.958,306.914.934,37.863-1.122,75.887-2.258,113.131-8.112,20.685-3.253,42.036-8.407,57.056-20.867,19.059-15.813,23.784-42.587,11.008-62.419-21.425-33.259-80.645-41.519-95.638-77.211-8.239-19.65.222-41.532,12.2-59.758,25.7-39.086,68.77-73.38,71.035-118.057,1.559-30.685-19.146-61.418-51.162-75.941C669.407,43.351,622.868,45.26,598.123,70.455,572.619,96.4,527.821,106.375,489.414,105.045Z" transform="translate(161.774 283.19)" fill="#002e4a" opacity="0.05"/>
    <g id="Grupo_166" data-name="Grupo 166" transform="translate(-373 -769.2)">
      <g id="Grupo_165" data-name="Grupo 165" transform="translate(814 1188)">
        <ellipse id="Elipse_13" data-name="Elipse 13" cx="158.232" cy="27.068" rx="158.232" ry="27.068" transform="translate(4.418 281.368)" fill="#d2ebff" opacity="0.56"/>
        <path id="Trazado_1277" data-name="Trazado 1277" d="M432.385,398.814C376.892,387.129,334.6,346.066,310.092,280.07c-17.46-47.013-19.831-90.516-19.924-92.345l-.953-18.817,148.377-52.445,148.377,52.445-.953,18.817c-.093,1.828-2.465,45.332-19.925,92.345-24.511,66-66.8,107.059-122.293,118.744l-5.206,1.1Z" transform="translate(-284.081 -106.469)" fill="#89caf7"/>
        <path id="Trazado_1278" data-name="Trazado 1278" d="M538.858,172.767l-117.524-41.54v0h0v0L303.81,172.767s7.958,157.4,117.524,180.477h0C530.9,330.17,538.858,172.767,538.858,172.767Z" transform="translate(-267.825 -90.027)" fill="#d2ebff"/>
        <g id="Grupo_152" data-name="Grupo 152" transform="translate(140.892 115.353)">
          <path id="Trazado_1279" data-name="Trazado 1279" d="M359.271,232.742l53.887-7.7h47.373l42.34,8.29-72.836,36.714Z" transform="translate(-346.945 -100.886)" fill="#073a93"/>
          <path id="Trazado_1280" data-name="Trazado 1280" d="M464.689,267.422s-95.338-52.407-106.59-35.235c-16.253,24.809,8.586,37.306,97.116,60.993Z" transform="translate(-353.44 -96.779)" fill="#073a93"/>
          <g id="Grupo_147" data-name="Grupo 147" transform="translate(100.915 173.117)">
            <path id="Trazado_1281" data-name="Trazado 1281" d="M437.794,271.921h0a11.176,11.176,0,0,0-6.05-14.6l-22.015-9.115-8.548,20.647,22.015,9.115A11.173,11.173,0,0,0,437.794,271.921Z" transform="translate(-401.181 -248.206)" fill="#1858b5"/>
            <path id="Trazado_1282" data-name="Trazado 1282" d="M407.621,249.781l16.657,6.9a7.571,7.571,0,1,1-5.794,13.989l-16.657-6.9Z" transform="translate(-400.462 -246.452)" fill="#489bff"/>
            <path id="Trazado_1283" data-name="Trazado 1283" d="M402.623,256.326l22.015,9.117a11.152,11.152,0,0,0,13.7-4.382,11.445,11.445,0,0,1-.545,1.816,11.173,11.173,0,0,1-14.6,6.048l-22.015-9.115Z" transform="translate(-401.181 -239.162)" fill="#063272" opacity="0.45"/>
            <path id="Trazado_1284" data-name="Trazado 1284" d="M405.343,261.242l3.519-8.5a.844.844,0,0,1,1.1-.454h0a.841.841,0,0,1,.457,1.1l-3.519,8.5a.843.843,0,0,1-1.1.457h0A.847.847,0,0,1,405.343,261.242Z" transform="translate(-396.615 -243.731)" fill="#e6e6e6"/>
            <path id="Trazado_1285" data-name="Trazado 1285" d="M407.8,262.257l3.519-8.5a.844.844,0,0,1,1.1-.454h0a.845.845,0,0,1,.457,1.1l-3.519,8.5a.844.844,0,0,1-1.1.454h0A.843.843,0,0,1,407.8,262.257Z" transform="translate(-393.885 -242.601)" fill="#e6e6e6"/>
            <path id="Trazado_1286" data-name="Trazado 1286" d="M410.493,263.374l3.519-8.5a.846.846,0,0,1,1.1-.457h0a.846.846,0,0,1,.457,1.1l-3.519,8.5a.843.843,0,0,1-1.1.457h0A.843.843,0,0,1,410.493,263.374Z" transform="translate(-390.881 -241.357)" fill="#e6e6e6"/>
          </g>
          <path id="Trazado_1287" data-name="Trazado 1287" d="M487.719,240.507c-1.465-5.037-8.762-13.566-15.249-31.058-6.745-18.185-35.482-20.144-35.482-20.144l-11.157,5.971L414.675,189.3s-28.739,1.959-35.484,20.144c-6.485,17.492-13.782,26.021-15.249,31.058s6.451,37.63,29.179,42.246h65.421C481.268,278.137,489.186,245.542,487.719,240.507Z" transform="translate(-341.931 -140.691)" fill="#489bff"/>
          <g id="Grupo_150" data-name="Grupo 150" transform="translate(61.269)">
            <g id="Grupo_148" data-name="Grupo 148" transform="translate(11.543 48.732)">
              <path id="Trazado_1288" data-name="Trazado 1288" d="M411.376,189.361V198.3s-2.065,9.983-11.789,11.645a15.178,15.178,0,0,1-11.7-11.645v-8.941Z" transform="translate(-387.886 -189.361)" fill="#f49290"/>
            </g>
            <g id="Grupo_149" data-name="Grupo 149">
              <path id="Trazado_1289" data-name="Trazado 1289" d="M383.236,197.481s-3.325-20.893,4.623-23.431c2.165-.691.583-7.591,12.681-7.675,16.515-.116,29.532-2.336,27.363,31.394Z" transform="translate(-382.291 -166.307)" fill="#073a93"/>
              <path id="Trazado_1290" data-name="Trazado 1290" d="M393.839,185.152a5.707,5.707,0,1,0-5.707,5.707A5.706,5.706,0,0,0,393.839,185.152Z" transform="translate(-382.425 -151.671)" fill="#ffb5b1"/>
              <path id="Trazado_1291" data-name="Trazado 1291" d="M410.283,185.152a5.706,5.706,0,1,0-5.705,5.707A5.7,5.7,0,0,0,410.283,185.152Z" transform="translate(-364.108 -151.671)" fill="#ffb5b1"/>
              <path id="Trazado_1292" data-name="Trazado 1292" d="M422.147,181.573l-.03-.011v0H422.1c-.233-.074-4.786-1.587-5.659-7.576l-2.5.7a38.179,38.179,0,0,1-21.136-.2l-1.991-.5a9.056,9.056,0,0,1-5.908,7.574l-.047,0-.159,9.248c0,5.382,2.272,11.922,5.908,16.955a15.9,15.9,0,0,0,25.6,0c3.638-5.033,5.908-11.573,5.908-16.955l-.006-9.208Z" transform="translate(-379.88 -157.758)" fill="#ffb5b1"/>
            </g>
          </g>
          <rect id="Rectángulo_14" data-name="Rectángulo 14" width="72.244" height="48.163" rx="2.866" transform="translate(48.357 100.372)" fill="#d2ebff"/>
          <circle id="Elipse_14" data-name="Elipse 14" cx="7.501" cy="7.501" r="7.501" transform="translate(76.756 116.459)" fill="#89caf7"/>
          <path id="Trazado_1293" data-name="Trazado 1293" d="M379.3,267.422s95.338-52.407,106.587-35.235C502.144,257,477.3,269.493,388.776,293.18Z" transform="translate(-324.635 -96.779)" fill="#073a93"/>
          <g id="Grupo_151" data-name="Grupo 151" transform="translate(27.536 173.117)">
            <path id="Trazado_1294" data-name="Trazado 1294" d="M367.32,271.921h0a11.175,11.175,0,0,1,6.048-14.6l22.015-9.115,8.55,20.647-22.015,9.115A11.173,11.173,0,0,1,367.32,271.921Z" transform="translate(-366.466 -248.206)" fill="#1858b5"/>
            <path id="Trazado_1295" data-name="Trazado 1295" d="M397.845,263.77l-16.657,6.9a7.571,7.571,0,1,1-5.794-13.989l16.657-6.9Z" transform="translate(-361.744 -246.452)" fill="#489bff"/>
            <path id="Trazado_1296" data-name="Trazado 1296" d="M402.329,256.326l-22.015,9.117a11.152,11.152,0,0,1-13.7-4.382,11.017,11.017,0,0,0,.545,1.816,11.173,11.173,0,0,0,14.6,6.048l22.015-9.115Z" transform="translate(-366.304 -239.162)" fill="#063272" opacity="0.45"/>
            <path id="Trazado_1297" data-name="Trazado 1297" d="M382.768,261.242l-3.519-8.5a.844.844,0,0,0-1.1-.454h0a.842.842,0,0,0-.454,1.1l3.519,8.5a.841.841,0,0,0,1.1.457h0A.844.844,0,0,0,382.768,261.242Z" transform="translate(-354.032 -243.731)" fill="#e6e6e6"/>
            <path id="Trazado_1298" data-name="Trazado 1298" d="M380.316,262.257l-3.519-8.5a.842.842,0,0,0-1.1-.454h0a.842.842,0,0,0-.454,1.1l3.519,8.5a.844.844,0,0,0,1.1.454h0A.844.844,0,0,0,380.316,262.257Z" transform="translate(-356.763 -242.601)" fill="#e6e6e6"/>
            <path id="Trazado_1299" data-name="Trazado 1299" d="M377.619,263.374l-3.517-8.5a.846.846,0,0,0-1.1-.457h0a.843.843,0,0,0-.457,1.1l3.519,8.5a.843.843,0,0,0,1.1.457h0A.844.844,0,0,0,377.619,263.374Z" transform="translate(-359.767 -241.357)" fill="#e6e6e6"/>
          </g>
        </g>
        <g id="Grupo_157" data-name="Grupo 157" transform="translate(0 125.362)">
          <g id="Grupo_155" data-name="Grupo 155">
            <g id="Grupo_153" data-name="Grupo 153" transform="translate(31.147 9.353)">
              <path id="Trazado_1300" data-name="Trazado 1300" d="M320.461,288.625S295.205,248.3,303.022,242.46,318.5,260.353,322.5,256.546s-13.934-37.714-5.466-45.007,7.834,17.468,15.027,22.068-3.894-33.742,4.714-39.733,12.75,13.082,12.75,13.082,9.539-37.966,22.372-30.523-19.673,45.67-12.04,44.36,15.471-14.213,22.091-5.519-36.735,30.83-29.785,30.259,19.265-9.189,21.4-1.505-35.18,21.544-31.314,24.2,23.372-12.4,26.448-1.315S328.21,295.678,320.461,288.625Z" transform="translate(-301.521 -175.467)" fill="#073a93"/>
              <path id="Trazado_1301" data-name="Trazado 1301" d="M309.031,296.749A131.784,131.784,0,0,0,320.714,271.4c1.6-4.705,2.961-9.575,4.283-14.285.6-2.145,1.2-4.291,1.828-6.428a311.289,311.289,0,0,1,29.227-68.379l.492.285a310.739,310.739,0,0,0-29.174,68.252c-.624,2.137-1.226,4.28-1.826,6.422-1.323,4.718-2.691,9.594-4.291,14.315a132.5,132.5,0,0,1-11.734,25.463Z" transform="translate(-293.156 -167.848)" fill="#d2ebff"/>
              <path id="Trazado_1302" data-name="Trazado 1302" d="M325.134,215.492a.287.287,0,0,1-.11-.146,129.188,129.188,0,0,1-5.709-26.758.285.285,0,1,1,.566-.057,128.693,128.693,0,0,0,5.684,26.64.283.283,0,0,1-.431.321Z" transform="translate(-281.704 -161.203)" fill="#d2ebff"/>
              <path id="Trazado_1303" data-name="Trazado 1303" d="M320.454,216.134a.258.258,0,0,1-.07-.065.282.282,0,0,1,.063-.4c7.829-5.72,15.925-11.634,24.6-16.361a21.661,21.661,0,0,1,5.17-2.2.284.284,0,1,1,.133.552,21.191,21.191,0,0,0-5.031,2.152c-8.645,4.707-16.726,10.611-24.541,16.318A.283.283,0,0,1,320.454,216.134Z" transform="translate(-280.573 -151.371)" fill="#d2ebff"/>
              <path id="Trazado_1304" data-name="Trazado 1304" d="M325.947,232.317a.325.325,0,0,1-.076-.076,114.862,114.862,0,0,1-10.489-18.787,145.6,145.6,0,0,1-5.052-15.088.284.284,0,1,1,.545-.161,145.27,145.27,0,0,0,5.031,15.029,114.387,114.387,0,0,0,10.438,18.69.285.285,0,0,1-.4.393Z" transform="translate(-291.722 -150.369)" fill="#d2ebff"/>
              <path id="Trazado_1305" data-name="Trazado 1305" d="M317.737,219.061a.278.278,0,0,1-.106-.33.284.284,0,0,1,.364-.171,4.855,4.855,0,0,0,2.551.017,43.05,43.05,0,0,0,6.745-2.093c.408-.152.814-.3,1.222-.45,6.451-2.357,13.186-4.154,19.7-5.891a.284.284,0,0,1,.146.55c-6.5,1.735-13.224,3.528-19.652,5.874l-1.217.45a43.244,43.244,0,0,1-6.838,2.118,5.445,5.445,0,0,1-2.852-.04A.228.228,0,0,1,317.737,219.061Z" transform="translate(-283.597 -136.855)" fill="#d2ebff"/>
              <path id="Trazado_1306" data-name="Trazado 1306" d="M325.648,240.884c-7.548-5.191-16.2-19.178-21.315-29.58a.284.284,0,1,1,.509-.249c5.086,10.338,13.67,24.232,21.127,29.36a.284.284,0,1,1-.321.469Z" transform="translate(-298.422 -136.008)" fill="#d2ebff"/>
              <path id="Trazado_1307" data-name="Trazado 1307" d="M314.791,229.391c-.068-.046-.133-.1-.2-.15a.285.285,0,0,1,.361-.44c1.067.862,2.668.594,4.242.163l27.549-7.544a.284.284,0,0,1,.15.548l-27.549,7.544C317.713,229.959,316.038,230.247,314.791,229.391Z" transform="translate(-287.077 -124.297)" fill="#d2ebff"/>
            </g>
            <g id="Grupo_154" data-name="Grupo 154">
              <path id="Trazado_1308" data-name="Trazado 1308" d="M333.52,292.815s-43.717-18.94-40.585-28.2,22.926,5.98,24.065.569-32.895-23.211-30.045-34.034,16.376,9.969,24.919,9.683-22.357-25.632-18.654-35.459,17.942,3.562,17.942,3.562-13.67-36.74,1.139-37.879,9.683,48.843,15.238,43.432,4.7-20.506,15.095-17.088-12.816,46.281-7.4,41.866,10.679-18.513,16.8-13.384-16.8,37.735-12.1,37.735,12.245-23.5,21.074-16.09S343.915,294.238,333.52,292.815Z" transform="translate(-286.786 -171.042)" fill="#489bff"/>
              <path id="Trazado_1309" data-name="Trazado 1309" d="M325.7,299.454a131.894,131.894,0,0,0-4.748-27.545c-1.351-4.79-2.989-9.584-4.57-14.217-.721-2.112-1.442-4.223-2.139-6.341a311.578,311.578,0,0,1-14.682-73l.566-.044a311.22,311.22,0,0,0,14.655,72.868c.7,2.116,1.418,4.225,2.139,6.333,1.583,4.644,3.223,9.444,4.581,14.247a132.654,132.654,0,0,1,4.767,27.665Z" transform="translate(-272.559 -162.952)" fill="#d2ebff"/>
              <path id="Trazado_1310" data-name="Trazado 1310" d="M313.261,209.3a.3.3,0,0,1-.173-.057,129.286,129.286,0,0,1-19.893-18.84.284.284,0,1,1,.433-.368,128.729,128.729,0,0,0,19.806,18.754.284.284,0,0,1,.053.4A.279.279,0,0,1,313.261,209.3Z" transform="translate(-279.723 -149.998)" fill="#d2ebff"/>
              <path id="Trazado_1311" data-name="Trazado 1311" d="M304.228,221.359a.3.3,0,0,1-.1-.015.285.285,0,0,1-.173-.364c3.215-9.161,6.538-18.635,11.017-27.458a21.765,21.765,0,0,1,3.014-4.752.289.289,0,0,1,.4-.021.284.284,0,0,1,.021.4,21.112,21.112,0,0,0-2.93,4.629c-4.462,8.789-7.781,18.246-10.99,27.388A.285.285,0,0,1,304.228,221.359Z" transform="translate(-267.676 -151.399)" fill="#d2ebff"/>
              <path id="Trazado_1312" data-name="Trazado 1312" d="M323.478,222.723a.3.3,0,0,1-.106-.019,115.13,115.13,0,0,1-19.316-9.55,146.359,146.359,0,0,1-12.729-9.582.287.287,0,0,1-.04-.4.283.283,0,0,1,.4-.04,145.453,145.453,0,0,0,12.679,9.546,114.5,114.5,0,0,0,19.218,9.5.285.285,0,0,1-.106.55Z" transform="translate(-281.843 -135.375)" fill="#d2ebff"/>
              <path id="Trazado_1313" data-name="Trazado 1313" d="M306.669,225.53a.285.285,0,0,1-.072-.56,4.872,4.872,0,0,0,2.116-1.435,42.839,42.839,0,0,0,4.378-5.553q.374-.533.753-1.065c3.987-5.6,8.523-10.907,12.911-16.037a.285.285,0,0,1,.433.37c-4.38,5.12-8.91,10.415-12.881,16l-.748,1.063a43.4,43.4,0,0,1-4.441,5.627,5.444,5.444,0,0,1-2.376,1.585A.278.278,0,0,1,306.669,225.53Z" transform="translate(-264.957 -137.92)" fill="#d2ebff"/>
              <path id="Trazado_1314" data-name="Trazado 1314" d="M328.093,229.962c-9.174,0-24.249-6.631-34.372-12.311a.285.285,0,0,1,.279-.5c10.062,5.644,25.029,12.237,34.093,12.237a.285.285,0,0,1,0,.571Z" transform="translate(-279.222 -119.723)" fill="#d2ebff"/>
              <path id="Trazado_1315" data-name="Trazado 1315" d="M310.424,236.22c-.082,0-.165-.006-.249-.013a.284.284,0,0,1-.26-.307.29.29,0,0,1,.309-.26c1.372.106,2.539-1.023,3.593-2.272l18.449-21.856a.284.284,0,1,1,.435.366L314.25,233.735C313.157,235.03,311.937,236.22,310.424,236.22Z" transform="translate(-261.027 -126.08)" fill="#d2ebff"/>
            </g>
          </g>
          <g id="Grupo_156" data-name="Grupo 156" transform="translate(20.424 116.089)">
            <path id="Trazado_1316" data-name="Trazado 1316" d="M299.742,231.842l6.98,43.2a12.65,12.65,0,0,0,12.486,10.63h21.269a12.647,12.647,0,0,0,12.484-10.63l6.982-43.2Z" transform="translate(-292.779 -219.413)" fill="#d2ebff"/>
            <path id="Trazado_1317" data-name="Trazado 1317" d="M359.942,231.842h-60.2l.966,5.986h46.41L341.1,275.046a12.647,12.647,0,0,1-12.484,10.63h11.856a12.65,12.65,0,0,0,12.486-10.63l6.014-37.217h0Z" transform="translate(-292.779 -219.413)" fill="#accfe5"/>
            <path id="Trazado_1318" data-name="Trazado 1318" d="M364.283,225.962H302.739a6.308,6.308,0,0,0-6.291,6.291h0a6.309,6.309,0,0,0,6.291,6.291h61.545a6.309,6.309,0,0,0,6.291-6.291h0A6.308,6.308,0,0,0,364.283,225.962Z" transform="translate(-296.448 -225.962)" fill="#d2ebff"/>
          </g>
        </g>
        <g id="Grupo_160" data-name="Grupo 160" transform="translate(192.663 61.296)">
          <rect id="Rectángulo_15" data-name="Rectángulo 15" width="136.691" height="42.222" rx="3.02" fill="#ffaa45"/>
          <g id="Grupo_158" data-name="Grupo 158" transform="translate(9.907 5.938)">
            <rect id="Rectángulo_16" data-name="Rectángulo 16" width="22.336" height="16.958" rx="1.255" transform="translate(0 12.981)" fill="#073a93"/>
            <path id="Trazado_1319" data-name="Trazado 1319" d="M399.7,154.6h-2.105v-3.338a5.621,5.621,0,0,0-11.241,0V154.6h-2.105v-3.338a7.726,7.726,0,0,1,15.452,0Z" transform="translate(-380.805 -143.542)" fill="#073a93"/>
            <path id="Trazado_1320" data-name="Trazado 1320" d="M391.5,153.878a2.357,2.357,0,1,0-3.517,2.038l-.814,4.642h3.951l-.814-4.642A2.344,2.344,0,0,0,391.5,153.878Z" transform="translate(-377.976 -134.655)" fill="#ffaa45"/>
          </g>
          <g id="Grupo_159" data-name="Grupo 159" transform="translate(53.125 18.51)">
            <circle id="Elipse_15" data-name="Elipse 15" cx="3.865" cy="3.865" r="3.865" fill="#073a93"/>
            <circle id="Elipse_16" data-name="Elipse 16" cx="3.865" cy="3.865" r="3.865" transform="translate(14.751)" fill="#073a93"/>
            <path id="Trazado_1321" data-name="Trazado 1321" d="M424.752,153.354a3.865,3.865,0,1,1-3.866-3.864A3.866,3.866,0,0,1,424.752,153.354Z" transform="translate(-387.519 -149.49)" fill="#073a93"/>
            <path id="Trazado_1322" data-name="Trazado 1322" d="M431.731,153.354a3.865,3.865,0,1,1-3.866-3.864A3.866,3.866,0,0,1,431.731,153.354Z" transform="translate(-379.746 -149.49)" fill="#073a93"/>
            <path id="Trazado_1323" data-name="Trazado 1323" d="M438.709,153.354a3.865,3.865,0,1,1-3.864-3.864A3.865,3.865,0,0,1,438.709,153.354Z" transform="translate(-371.974 -149.49)" fill="#073a93"/>
          </g>
        </g>
        <g id="Grupo_164" data-name="Grupo 164" transform="translate(18.205 0)">
          <rect id="Rectángulo_17" data-name="Rectángulo 17" width="107.369" height="77.218" rx="12.214" fill="#489bff"/>
          <g id="Grupo_163" data-name="Grupo 163" transform="translate(22.361 22.821)">
            <path id="Trazado_1326" data-name="Trazado 1326" d="M370.8,122.531H308.619a2.65,2.65,0,0,0-2.642,2.642h0a2.651,2.651,0,0,0,2.642,2.642H370.8a2.651,2.651,0,0,0,2.642-2.642h0A2.65,2.65,0,0,0,370.8,122.531Z" transform="translate(-305.977 -122.531)" fill="#fff"/>
            <path id="Trazado_1327" data-name="Trazado 1327" d="M356.8,128.7H308.619a2.651,2.651,0,0,0-2.642,2.642h0a2.65,2.65,0,0,0,2.642,2.642H356.8a2.65,2.65,0,0,0,2.642-2.642h0A2.651,2.651,0,0,0,356.8,128.7Z" transform="translate(-305.977 -115.663)" fill="#fff"/>
            <path id="Trazado_1328" data-name="Trazado 1328" d="M350.191,134.572H308.619a2.651,2.651,0,0,0-2.642,2.642h0a2.65,2.65,0,0,0,2.642,2.642h41.572a2.65,2.65,0,0,0,2.642-2.642h0A2.651,2.651,0,0,0,350.191,134.572Z" transform="translate(-305.977 -109.12)" fill="#fff"/>
          </g>
        </g>
      </g>
    </g>
  </g>
</svg>
